<svg width="1643" height="450" viewBox="0 0 1643 450" fill="none" xmlns="http://www.w3.org/2000/svg">
<path d="M2.48145 281.196C2.48145 273.749 4.96298 271.266 12.4075 271.266H136.482C143.926 271.266 147.649 272.508 152.612 277.472L169.982 294.849C174.945 299.814 176.186 302.297 176.186 309.744V322.156C176.186 329.603 174.945 333.327 168.741 338.292L153.852 353.186L169.982 369.322C174.945 374.286 176.186 378.01 176.186 385.457V397.869C176.186 404.075 173.704 409.04 168.741 414.005L151.371 430.141C146.408 435.105 142.686 436.347 135.241 436.347H9.92581C2.48134 436.347 0 433.864 0 426.417V281.196H2.48145ZM135.241 320.915L122.834 308.503H45.9075V338.292H120.352L135.241 320.915ZM124.075 402.834L136.482 390.422L119.111 373.045H44.6667V404.075H124.075V402.834Z" fill="#154733"/>
<path d="M234.499 281.196C234.499 273.749 236.981 271.266 244.425 271.266H267.999C275.443 271.266 277.925 273.749 277.925 281.196V430.14C277.925 437.587 275.443 440.07 267.999 440.07H244.425C236.981 440.07 234.499 437.587 234.499 430.14V281.196Z" fill="#154733"/>
<path d="M527.316 307.261C532.279 312.226 533.52 315.949 533.52 323.397V386.698C533.52 394.145 532.279 397.869 527.316 402.834L496.298 433.864C491.335 438.828 487.613 440.07 480.168 440.07H390.835C383.39 440.07 379.668 438.828 374.705 433.864L343.686 402.834C338.723 397.869 337.482 394.145 337.482 386.698V323.397C337.482 315.949 338.723 312.226 343.686 307.261L374.705 276.231C379.668 271.266 383.39 270.025 390.835 270.025H480.168C487.613 270.025 491.335 271.266 496.298 276.231L527.316 307.261ZM470.242 309.743H399.52L379.668 329.603V381.733L399.52 401.592H470.242L490.094 382.974V329.603L470.242 309.743Z" fill="#154733"/>
<path d="M735.76 281.196C735.76 273.749 738.241 271.266 745.686 271.266H766.778C774.223 271.266 776.704 273.749 776.704 281.196V416.487C776.704 423.935 775.464 427.658 769.26 432.623L753.13 446.276C748.167 451.241 744.445 451.241 739.482 446.276L634.019 334.568V430.141C634.019 437.588 631.537 440.07 624.093 440.07H603C595.556 440.07 593.074 437.588 593.074 430.141V281.196C593.074 273.749 595.556 271.266 603 271.266H626.574C634.019 271.266 637.741 272.508 642.704 278.714L737.001 379.251L735.76 281.196Z" fill="#154733"/>
<path d="M839.983 281.196C839.983 273.749 842.465 271.266 849.909 271.266H873.483C880.928 271.266 883.409 273.749 883.409 281.196V430.14C883.409 437.587 880.928 440.07 873.483 440.07H849.909C842.465 440.07 839.983 437.587 839.983 430.14V281.196Z" fill="#154733"/>
<path d="M1119.15 293.607C1124.11 298.572 1124.11 302.296 1119.15 306.019L1100.54 324.637C1095.58 329.602 1091.85 329.602 1086.89 323.396L1073.24 309.743H1005L985.15 329.602V381.733L1005 401.592H1074.48L1088.13 387.939C1093.09 382.974 1096.82 382.974 1100.54 387.939L1117.91 406.557C1122.87 411.522 1122.87 415.245 1117.91 420.21L1101.78 435.105C1096.82 440.069 1093.09 441.311 1085.65 441.311H993.835C986.39 441.311 982.668 440.069 977.705 435.105L947.927 405.316C942.964 400.351 941.724 396.627 941.724 389.18V327.12C941.724 319.673 942.964 315.949 947.927 310.984L978.946 279.954C983.909 274.989 987.631 273.748 995.075 273.748H1086.89C1094.33 273.748 1098.06 274.989 1103.02 279.954L1119.15 293.607Z" fill="#154733"/>
<path d="M1181.19 438.828C1173.74 438.828 1171.26 436.346 1171.26 428.898V409.039C1171.26 401.592 1173.74 399.11 1181.19 399.11H1259.35L1168.78 323.396C1162.57 318.431 1162.58 314.708 1167.54 309.743L1189.87 279.954C1194.83 273.748 1198.56 272.507 1204.76 272.507H1300.3C1307.74 272.507 1310.22 274.989 1310.22 282.436V302.296C1310.22 309.743 1307.74 312.225 1300.3 312.225H1224.61L1315.19 387.939C1321.39 392.904 1321.39 396.627 1316.43 401.592L1292.85 431.381C1287.89 437.587 1284.17 438.828 1277.96 438.828H1181.19Z" fill="#154733"/>
<path d="M0 12.4122C0 4.96499 2.48153 2.48254 9.92599 2.48254H134C141.445 2.48254 145.167 3.72375 150.13 8.68856L167.5 26.0655C172.463 31.0303 173.704 33.5127 173.704 40.9599V53.3719C173.704 60.8191 172.463 64.5428 166.26 69.5076L151.371 84.402L167.5 100.538C172.463 105.502 173.704 109.226 173.704 116.673V129.085C173.704 135.291 171.223 140.256 166.26 145.221L148.889 161.356C143.926 166.321 140.204 167.562 132.76 167.562H9.92599C2.48153 167.562 0 165.08 0 157.633V12.4122ZM132.76 52.1306L120.352 39.7186H42.1853V69.5076H116.63L132.76 52.1306ZM121.593 134.05L134 121.638L116.63 104.261H42.1853V135.291H121.593V134.05Z" fill="#154733"/>
<path d="M232.019 12.4122C232.019 4.96499 234.5 2.48254 241.944 2.48254H265.519C272.963 2.48254 275.444 4.96499 275.444 12.4122V161.357C275.444 168.804 272.963 171.287 265.519 171.287H241.944C234.5 171.287 232.019 168.804 232.019 161.357V12.4122V12.4122Z" fill="#154733"/>
<path d="M466.519 129.085C473.963 129.085 476.445 131.568 476.445 139.015V160.115C476.445 167.562 473.963 170.045 466.519 170.045H348.648C341.204 170.045 338.722 167.562 338.722 160.115V12.4122C338.722 4.96499 341.204 2.48254 348.648 2.48254H372.222C379.667 2.48254 382.148 4.96499 382.148 12.4122V129.085H466.519Z" fill="#154733"/>
<path d="M650.149 129.085C657.593 129.085 660.075 131.568 660.075 139.015V160.115C660.075 167.562 657.593 170.045 650.149 170.045H532.279C524.834 170.045 522.353 167.562 522.353 160.115V12.4122C522.353 4.96499 524.834 2.48254 532.279 2.48254H555.853C563.297 2.48254 565.778 4.96499 565.778 12.4122V129.085H650.149Z" fill="#154733"/>
<path d="M705.981 12.4122C705.981 4.96499 708.463 2.48254 715.907 2.48254H838.741C846.185 2.48254 848.667 4.96499 848.667 12.4122V31.0303C848.667 38.4775 846.185 40.96 838.741 40.96H748.167V67.0251H830.056C837.5 67.0251 839.982 69.5076 839.982 76.9548V96.8142C839.982 104.261 837.5 106.744 830.056 106.744H748.167V134.05H839.982C847.426 134.05 849.908 136.533 849.908 143.98V162.598C849.908 170.045 847.426 172.528 839.982 172.528H715.907C708.463 172.528 705.981 170.045 705.981 162.598V12.4122V12.4122Z" fill="#154733"/>
<path d="M950.408 160.115C950.408 167.562 947.927 170.045 940.482 170.045H916.908C909.464 170.045 906.982 167.562 906.982 160.115V12.4122C906.982 4.96499 909.464 2.48254 916.908 2.48254H1036.02C1043.46 2.48254 1047.19 3.72375 1052.15 8.68856L1073.24 29.789C1078.2 34.7538 1079.45 38.4774 1079.45 45.9246V68.2663C1079.45 75.7135 1078.2 79.4372 1073.24 84.402L1053.39 104.261C1048.43 109.226 1045.95 110.467 1043.46 110.467H1039.74L1076.96 146.462C1081.93 151.427 1081.93 155.15 1076.96 160.115L1060.83 175.01C1055.87 179.975 1052.15 179.975 1047.19 173.769L991.353 116.673H951.649V160.115H950.408ZM950.408 79.4371H1023.61L1036.02 67.025V53.3719L1023.61 40.9599H949.168L950.408 79.4371Z" fill="#154733"/>
<path d="M1137.76 12.4122C1137.76 4.96499 1140.24 2.48254 1147.69 2.48254H1171.26C1178.71 2.48254 1181.19 4.96499 1181.19 12.4122V161.357C1181.19 168.804 1178.71 171.287 1171.26 171.287H1147.69C1140.24 171.287 1137.76 168.804 1137.76 161.357V12.4122Z" fill="#154733"/>
<path d="M1416.93 24.8245C1421.89 29.7893 1421.89 33.5129 1416.93 37.2366L1398.32 55.8547C1393.35 60.8195 1389.63 60.8194 1384.67 54.6134L1371.02 40.9602H1302.78L1282.93 60.8194V112.95L1302.78 132.809H1372.26L1385.91 119.156C1390.87 114.191 1394.59 114.191 1398.32 119.156L1415.69 137.774C1420.65 142.739 1420.65 146.463 1415.69 151.428L1399.56 166.322C1394.59 171.287 1390.87 172.528 1383.43 172.528H1291.61C1284.17 172.528 1280.45 171.287 1275.48 166.322L1245.7 136.533C1240.74 131.568 1239.5 127.845 1239.5 120.397V58.337C1239.5 50.8898 1240.74 47.1661 1245.7 42.2013L1276.72 11.1711C1281.69 6.2063 1285.41 4.96509 1292.85 4.96509H1384.67C1392.11 4.96509 1395.83 6.2063 1400.8 11.1711L1416.93 24.8245Z" fill="#154733"/>
<path d="M1642.74 160.116C1642.74 167.563 1640.26 170.045 1632.82 170.045H1609.24C1601.8 170.045 1600.56 167.563 1600.56 160.116V129.086H1512.46V161.357C1512.46 168.804 1509.98 171.287 1502.54 171.287H1481.45C1474 171.287 1471.52 168.804 1471.52 161.357V74.4725C1471.52 67.0252 1472.76 63.3016 1477.72 58.3367L1527.35 7.44732C1532.32 2.48249 1536.04 0 1543.48 0H1570.78C1578.22 0 1581.95 1.24128 1586.91 7.44732L1635.3 58.3367C1640.26 63.3016 1641.5 68.2664 1641.5 74.4725V160.116H1642.74ZM1557.13 34.7539L1513.71 76.9548V91.8493H1601.8V76.9548L1557.13 34.7539Z" fill="#154733"/>
</svg>
