<svg width="1348" height="680" viewBox="0 0 1348 680" fill="none" xmlns="http://www.w3.org/2000/svg">
<path d="M464.582 566.857C464.582 563.575 465.676 562.481 468.956 562.481H523.636C526.917 562.481 528.557 563.028 530.744 565.216L538.4 572.874C540.587 575.062 541.134 576.156 541.134 579.438V584.908C541.134 588.19 540.587 589.831 537.853 592.019L531.291 598.582L538.4 605.693C540.587 607.881 541.134 609.522 541.134 612.804V618.274C541.134 621.009 540.04 623.197 537.853 625.385L530.198 632.496C528.01 634.684 526.37 635.231 523.089 635.231H467.863C464.582 635.231 463.489 634.137 463.489 630.855V566.857H464.582ZM523.089 584.36L517.621 578.89H483.72V592.019H516.528L523.089 584.36ZM518.168 620.462L523.636 614.992L515.981 607.334H483.173V621.009H518.168V620.462Z" fill="#154733"/>
<path d="M566.833 566.857C566.833 563.575 567.926 562.481 571.207 562.481H581.596C584.877 562.481 585.97 563.575 585.97 566.857V632.496C585.97 635.778 584.877 636.872 581.596 636.872H571.207C567.926 636.872 566.833 635.778 566.833 632.496V566.857Z" fill="#154733"/>
<path d="M695.877 578.343C698.064 580.531 698.611 582.172 698.611 585.454V613.351C698.611 616.633 698.064 618.274 695.877 620.462L682.207 634.137C680.02 636.325 678.379 636.872 675.098 636.872H635.729C632.448 636.872 630.808 636.325 628.621 634.137L614.951 620.462C612.764 618.274 612.217 616.633 612.217 613.351V585.454C612.217 582.172 612.764 580.531 614.951 578.343L628.621 564.668C630.808 562.48 632.448 561.933 635.729 561.933H675.098C678.379 561.933 680.02 562.48 682.207 564.668L695.877 578.343ZM670.724 579.437H639.557L630.808 588.189V611.163L639.557 619.915H670.724L679.473 611.71V588.189L670.724 579.437Z" fill="#154733"/>
<path d="M787.738 566.857C787.738 563.575 788.831 562.481 792.112 562.481H801.408C804.688 562.481 805.782 563.575 805.782 566.857V626.479C805.782 629.761 805.235 631.402 802.501 633.59L795.393 639.607C793.206 641.795 791.565 641.795 789.378 639.607L742.9 590.378V632.496C742.9 635.778 741.807 636.872 738.526 636.872H729.231C725.95 636.872 724.856 635.778 724.856 632.496V566.857C724.856 563.575 725.95 562.481 729.231 562.481H739.62C742.901 562.481 744.541 563.028 746.728 565.763L788.285 610.069L787.738 566.857Z" fill="#154733"/>
<path d="M833.669 566.857C833.669 563.575 834.763 562.481 838.043 562.481H848.432C851.713 562.481 852.807 563.575 852.807 566.857V632.496C852.807 635.778 851.713 636.872 848.432 636.872H838.043C834.763 636.872 833.669 635.778 833.669 632.496V566.857Z" fill="#154733"/>
<path d="M956.697 572.326C958.884 574.514 958.884 576.155 956.697 577.796L948.495 586.001C946.308 588.189 944.668 588.189 942.481 585.454L936.466 579.437H906.392L897.644 588.189V611.163L906.392 619.915H937.013L943.027 613.898C945.215 611.71 946.855 611.71 948.495 613.898L956.151 622.103C958.338 624.291 958.338 625.932 956.151 628.12L949.042 634.684C946.855 636.872 945.215 637.419 941.934 637.419H901.471C898.191 637.419 896.55 636.872 894.363 634.684L881.24 621.556C879.053 619.368 878.506 617.727 878.506 614.445V587.095C878.506 583.813 879.053 582.172 881.24 579.984L894.91 566.309C897.097 564.121 898.737 563.574 902.018 563.574H942.481C945.762 563.574 947.402 564.121 949.589 566.309L956.697 572.326Z" fill="#154733"/>
<path d="M984.037 636.325C980.756 636.325 979.663 635.231 979.663 631.949V623.197C979.663 619.915 980.756 618.821 984.037 618.821H1018.49L978.569 585.454C975.835 583.266 975.835 581.625 978.022 579.437L987.865 566.309C990.052 563.574 991.692 563.027 994.426 563.027H1036.53C1039.81 563.027 1040.9 564.121 1040.9 567.403V576.155C1040.9 579.437 1039.81 580.531 1036.53 580.531H1003.17L1043.09 613.898C1045.82 616.086 1045.82 617.727 1043.64 619.915L1033.25 633.043C1031.06 635.778 1029.42 636.325 1026.69 636.325H984.037Z" fill="#154733"/>
<path d="M321.322 447.064C321.322 443.782 322.415 442.688 325.696 442.688H380.375C383.656 442.688 385.297 443.235 387.484 445.423L395.139 453.081C397.326 455.269 397.873 456.363 397.873 459.645V465.115C397.873 468.397 397.326 470.038 394.592 472.226L388.031 478.79L395.139 485.901C397.326 488.089 397.873 489.73 397.873 493.012V498.482C397.873 501.217 396.779 503.405 394.592 505.593L386.937 512.703C384.75 514.891 383.109 515.438 379.829 515.438H325.696C322.415 515.438 321.322 514.344 321.322 511.062V447.064ZM379.829 464.568L374.361 459.098H339.913V472.226H372.72L379.829 464.568ZM374.908 500.67L380.375 495.2L372.72 487.542H339.913V501.217H374.908V500.67Z" fill="#154733"/>
<path d="M423.572 447.064C423.572 443.782 424.666 442.688 427.947 442.688H438.336C441.616 442.688 442.71 443.782 442.71 447.064V512.704C442.71 515.986 441.616 517.08 438.336 517.08H427.947C424.666 517.08 423.572 515.986 423.572 512.704V447.064Z" fill="#154733"/>
<path d="M526.916 498.482C530.197 498.482 531.291 499.576 531.291 502.858V512.156C531.291 515.438 530.197 516.532 526.916 516.532H474.971C471.69 516.532 470.596 515.438 470.596 512.156V447.064C470.596 443.782 471.69 442.688 474.971 442.688H485.36C488.641 442.688 489.734 443.782 489.734 447.064V498.482H526.916Z" fill="#154733"/>
<path d="M607.842 498.482C611.123 498.482 612.217 499.576 612.217 502.858V512.156C612.217 515.438 611.123 516.532 607.842 516.532H555.897C552.616 516.532 551.522 515.438 551.522 512.156V447.064C551.522 443.782 552.616 442.688 555.897 442.688H566.286C569.567 442.688 570.66 443.782 570.66 447.064V498.482H607.842Z" fill="#154733"/>
<path d="M632.448 447.064C632.448 443.782 633.541 442.688 636.822 442.688H690.955C694.235 442.688 695.329 443.782 695.329 447.064V455.269C695.329 458.551 694.235 459.645 690.955 459.645H651.039V471.132H687.127C690.408 471.132 691.501 472.226 691.501 475.508V484.26C691.501 487.542 690.408 488.636 687.127 488.636H651.039V500.67H691.501C694.782 500.67 695.876 501.764 695.876 505.046V513.251C695.876 516.533 694.782 517.627 691.501 517.627H636.822C633.541 517.627 632.448 516.533 632.448 513.251V447.064Z" fill="#154733"/>
<path d="M740.167 512.156C740.167 515.438 739.073 516.532 735.792 516.532H725.403C722.122 516.532 721.029 515.438 721.029 512.156V447.064C721.029 443.782 722.122 442.688 725.403 442.688H777.895C781.176 442.688 782.817 443.235 785.004 445.423L794.299 454.722C796.486 456.91 797.033 458.551 797.033 461.833V471.679C797.033 474.961 796.486 476.602 794.299 478.79L785.551 487.542C783.363 489.73 782.27 490.277 781.176 490.277H779.536L795.94 506.14C798.127 508.328 798.127 509.968 795.94 512.156L788.831 518.721C786.644 520.909 785.004 520.908 782.817 518.174L758.211 493.012H740.713V512.156H740.167ZM740.167 476.602H772.427L777.895 471.132V465.115L772.427 459.645H739.62L740.167 476.602Z" fill="#154733"/>
<path d="M822.733 447.064C822.733 443.782 823.826 442.688 827.107 442.688H837.496C840.777 442.688 841.871 443.782 841.871 447.064V512.704C841.871 515.986 840.777 517.08 837.496 517.08H827.107C823.826 517.08 822.733 515.986 822.733 512.704V447.064Z" fill="#154733"/>
<path d="M945.762 452.534C947.949 454.722 947.949 456.363 945.762 458.004L937.56 466.209C935.372 468.397 933.732 468.397 931.545 465.662L925.53 459.645H895.456L886.708 468.397V491.371L895.456 500.123H926.077L932.092 494.106C934.279 491.918 935.919 491.918 937.56 494.106L945.215 502.311C947.402 504.499 947.402 506.14 945.215 508.328L938.106 514.892C935.919 517.08 934.279 517.627 930.998 517.627H890.535C887.254 517.627 885.614 517.08 883.427 514.892L870.304 501.764C868.117 499.576 867.57 497.935 867.57 494.653V467.303C867.57 464.021 868.117 462.38 870.304 460.192L883.974 446.517C886.161 444.329 887.801 443.782 891.082 443.782H931.545C934.826 443.782 936.466 444.329 938.653 446.517L945.762 452.534Z" fill="#154733"/>
<path d="M1045.28 512.157C1045.28 515.439 1044.18 516.533 1040.9 516.533H1030.51C1027.23 516.533 1026.69 515.439 1026.69 512.157V498.482H987.865V512.704C987.865 515.986 986.771 517.08 983.49 517.08H974.195C970.914 517.08 969.82 515.986 969.82 512.704V474.414C969.82 471.132 970.367 469.491 972.554 467.303L994.426 444.876C996.613 442.688 998.254 441.594 1001.53 441.594H1013.56C1016.84 441.594 1018.49 442.141 1020.67 444.876L1042 467.303C1044.18 469.491 1044.73 471.679 1044.73 474.414V512.157H1045.28ZM1007.55 456.91L988.411 475.508V482.072H1027.23V475.508L1007.55 456.91Z" fill="#154733"/>
<path d="M366.519 110.659C366.519 122.038 357.298 131.259 345.927 131.259C334.556 131.259 325.336 122.038 325.336 110.659C325.336 99.2802 334.556 90.0585 345.927 90.0585C357.298 90.0585 366.519 99.2802 366.519 110.659Z" stroke="#154733" stroke-width="8.02905"/>
<path d="M507.232 110.659H1105.97L1185.26 187.239V416.979L1116.91 474.414" stroke="#154733" stroke-width="10.7054"/>
<path d="M354.129 91.514L395.138 42.2841H1141.51L1264.54 159.889V474.413L1116.91 592.018" stroke="#154733" stroke-width="10.7054"/>
<path d="M467.503 110.659C467.503 122.038 476.723 131.259 488.094 131.259C499.465 131.259 508.685 122.038 508.685 110.659C508.685 99.2802 499.465 90.0585 488.094 90.0585C476.723 90.0585 467.503 99.2802 467.503 110.659Z" stroke="#154733" stroke-width="8.02905"/>
<path d="M1085.38 600.223C1085.38 610.092 1093.38 618.089 1103.24 618.089C1113.1 618.089 1121.1 610.092 1121.1 600.223C1121.1 590.355 1113.1 582.358 1103.24 582.358C1093.38 582.358 1085.38 590.355 1085.38 600.223Z" stroke="#154733" stroke-width="8.02905"/>
<path d="M270.956 379.003C270.956 388.302 268.222 391.584 258.38 391.584L228.306 392.131C219.558 392.131 216.277 389.396 216.824 379.55L217.37 347.825L100.356 348.371C91.6077 348.371 88.3269 345.636 88.3269 336.337V299.142C88.3269 289.843 90.5141 284.92 97.0756 277.809L179.642 189.742C186.203 182.631 191.124 180.443 200.42 180.443H258.927C268.222 180.443 270.956 183.178 270.956 192.477L270.409 300.236L302.67 299.689C311.966 299.689 315.247 302.424 315.247 311.723V336.337C315.247 345.636 312.513 348.371 302.67 348.371L270.409 347.825V379.003H270.956ZM208.075 227.485L149.021 292.578V300.236H218.464L219.011 225.844L208.075 227.485Z" fill="#154733"/>
<path d="M532.871 305.706C529.044 307.894 525.216 308.441 519.201 308.441H426.793C417.497 308.441 412.576 306.253 406.562 300.236L383.049 276.715C377.035 270.698 374.847 265.775 374.847 256.476L374.301 230.767C374.301 225.844 376.095 218.833 378.128 216.545C382.502 211.622 378.128 216.545 382.502 211.622L407.655 186.46C413.67 180.443 418.591 178.255 427.887 178.255H527.403C536.699 178.255 541.62 180.443 548.182 187.007L573.334 212.169C579.349 218.186 582.083 223.656 582.083 232.955V332.509C582.083 341.808 579.896 346.731 573.334 353.295L543.261 383.379C537.246 389.396 531.778 392.131 522.482 392.131H416.951C407.655 392.131 402.734 389.943 396.719 383.926L386.33 373.533C379.768 366.969 379.769 362.593 385.783 356.576L404.921 337.431C410.936 331.414 415.31 330.867 421.325 337.431L430.074 346.73H513.187L532.871 327.585V305.706ZM532.871 250.459V236.784L517.014 224.203H437.729L425.153 236.784V250.459L437.729 263.04H517.561L532.871 250.459Z" fill="#154733"/>
<path d="M1078.03 305.706C1074.2 307.894 1070.37 308.441 1064.36 308.441H971.948C962.652 308.441 957.731 306.253 951.716 300.236L928.204 276.715C922.189 270.698 920.002 265.775 920.002 256.476L919.455 230.767C919.455 225.844 921.25 218.833 923.283 216.545C927.657 211.622 923.283 216.545 927.657 211.622L952.81 186.46C958.825 180.443 963.746 178.255 973.041 178.255H1072.56C1081.85 178.255 1086.77 180.443 1093.34 187.007L1118.49 212.169C1124.5 218.186 1127.24 223.656 1127.24 232.955V332.509C1127.24 341.808 1125.05 346.731 1118.49 353.295L1088.42 383.379C1082.4 389.396 1076.93 392.131 1067.64 392.131H962.105C952.81 392.131 947.889 389.943 941.874 383.926L931.485 373.533C924.923 366.969 924.923 362.593 930.938 356.576L950.076 337.431C956.091 331.414 960.465 330.867 966.48 337.431L975.228 346.73H1058.34L1078.03 327.585V305.706ZM1078.03 250.459V236.784L1062.17 224.203H982.884L970.307 236.784V250.459L982.884 263.04H1062.72L1078.03 250.459Z" fill="#154733"/>
<path d="M851.106 225.297C857.121 231.314 859.308 236.237 859.308 245.536V326.491C859.308 335.79 857.121 340.713 850.56 347.277L812.831 384.473C806.269 391.037 800.801 393.225 792.052 393.225H713.861C704.565 393.225 699.644 391.037 693.629 385.02L654.807 346.73C648.792 340.713 646.605 335.79 646.605 326.491V246.083C646.605 236.784 648.792 231.861 654.807 225.844L693.629 187.554C699.644 181.537 704.565 179.349 713.861 179.349H792.599C801.895 179.349 806.816 181.537 812.831 187.554L851.106 225.297ZM781.117 228.032H724.797L700.737 252.1V319.928L724.25 343.448H780.57L804.629 319.38L805.176 251.006L781.117 228.032Z" fill="#154733"/>
<path d="M1121.1 479.883C1121.1 489.752 1113.1 497.749 1103.24 497.749C1093.38 497.749 1085.38 489.752 1085.38 479.883C1085.38 470.015 1093.38 462.018 1103.24 462.018C1113.1 462.018 1121.1 470.015 1121.1 479.883Z" stroke="#154733" stroke-width="8.02905"/>
</svg>
