<svg width="1039" height="215" viewBox="0 0 1039 215" fill="none" xmlns="http://www.w3.org/2000/svg">
<path d="M182.629 200.749C182.629 210.048 179.895 213.33 170.053 213.33L139.979 213.877C131.231 213.877 127.95 211.142 128.497 201.296L129.044 169.57L12.0295 170.117C3.28075 170.117 0 167.382 0 158.083V120.887C0 111.588 2.18717 106.665 8.7487 99.5538L91.3147 11.4869C97.8762 4.37591 102.797 2.18793 112.093 2.18793H170.6C179.895 2.18793 182.629 4.92291 182.629 14.2219L182.083 121.981L214.343 121.434C223.639 121.434 226.92 124.169 226.92 133.468V158.083C226.92 167.382 224.186 170.117 214.343 170.117L182.083 169.57V200.749H182.629ZM119.748 49.2299L60.6942 114.323V121.981H130.137L130.684 47.5889L119.748 49.2299Z" fill="#154733"/>
<path d="M444.543 127.451C440.715 129.639 436.888 130.186 430.873 130.186H338.465C329.169 130.186 324.248 127.998 318.233 121.981L294.721 98.4598C288.706 92.4428 286.519 87.5198 286.519 78.2208L285.972 52.5119C285.972 47.5889 287.766 40.5783 289.8 38.2899C294.174 33.3669 289.8 38.2899 294.174 33.3669L319.327 8.20499C325.342 2.188 330.263 0 339.558 0H439.075C448.371 0 453.292 2.18795 459.853 8.75194L485.006 33.9139C491.021 39.9309 493.755 45.4009 493.755 54.6999V154.254C493.755 163.553 491.567 168.476 485.006 175.04L454.932 205.125C448.917 211.142 443.449 213.877 434.154 213.877H328.622C319.327 213.877 314.406 211.689 308.391 205.672L298.002 195.279C291.44 188.715 291.44 184.339 297.455 178.322L316.593 159.177C322.608 153.16 326.982 152.613 332.997 159.177L341.745 168.476H424.858L444.543 149.331V127.451ZM444.543 72.2039V58.5289L428.686 45.9479H349.401L336.824 58.5289V72.2039L349.401 84.7849H429.233L444.543 72.2039Z" fill="#154733"/>
<path d="M989.698 127.451C985.87 129.639 982.042 130.186 976.028 130.186H883.619C874.324 130.186 869.403 127.998 863.388 121.981L839.876 98.4598C833.861 92.4428 831.674 87.5198 831.674 78.2208L831.127 52.5119C831.127 47.5889 832.921 40.5783 834.955 38.2899C839.329 33.3669 834.955 38.2899 839.329 33.3669L864.481 8.20499C870.496 2.188 875.417 0 884.713 0H984.23C993.525 0 998.446 2.18795 1005.01 8.75194L1030.16 33.9139C1036.18 39.9309 1038.91 45.4009 1038.91 54.6999V154.254C1038.91 163.553 1036.72 168.476 1030.16 175.04L1000.09 205.125C994.072 211.142 988.604 213.877 979.308 213.877H873.777C864.481 213.877 859.56 211.689 853.546 205.672L843.156 195.279C836.595 188.715 836.595 184.339 842.61 178.322L861.748 159.177C867.762 153.16 872.137 152.613 878.151 159.177L886.9 168.476H970.013L989.698 149.331V127.451ZM989.698 72.2039V58.5289L973.84 45.9479H894.555L881.979 58.5289V72.2039L894.555 84.7849H974.387L989.698 72.2039Z" fill="#154733"/>
<path d="M762.779 47.0419C768.794 53.0588 770.981 57.9818 770.981 67.2808V148.237C770.981 157.536 768.794 162.459 762.233 169.023L724.504 206.219C717.942 212.783 712.474 214.971 703.726 214.971H625.534C616.238 214.971 611.317 212.783 605.302 206.766L566.48 168.476C560.465 162.459 558.278 157.536 558.278 148.237V67.8278C558.278 58.5289 560.465 53.6059 566.48 47.5889L605.302 9.29895C611.317 3.28196 616.238 1.09396 625.534 1.09396H704.272C713.568 1.09396 718.489 3.28196 724.504 9.29895L762.779 47.0419ZM692.79 49.7769H636.47L612.411 73.8449V141.673L635.923 165.194H692.243L716.302 141.126L716.849 72.7508L692.79 49.7769Z" fill="#154733"/>
</svg>
