<svg width="1291" height="651" viewBox="0 0 1291 651" fill="none" xmlns="http://www.w3.org/2000/svg">
<rect width="1290.27" height="651" fill="#154733"/>
<path d="M444.513 543.181C444.513 540.039 445.56 538.992 448.701 538.992H501.048C504.189 538.992 505.76 539.515 507.853 541.61L515.182 548.942C517.276 551.036 517.8 552.084 517.8 555.226V560.462C517.8 563.604 517.276 565.175 514.659 567.27L508.377 573.554L515.182 580.362C517.276 582.457 517.8 584.028 517.8 587.17V592.406C517.8 595.025 516.753 597.119 514.659 599.214L507.33 606.022C505.236 608.116 503.666 608.64 500.525 608.64H447.654C444.513 608.64 443.466 607.593 443.466 604.451V543.181H444.513ZM500.525 559.939L495.29 554.702H462.834V567.27H494.243L500.525 559.939ZM495.814 594.501L501.048 589.264L493.72 581.933H462.311V595.025H495.814V594.501Z" fill="white"/>
<path d="M542.403 543.181C542.403 540.039 543.45 538.992 546.59 538.992H556.536C559.677 538.992 560.724 540.039 560.724 543.181V606.021C560.724 609.163 559.677 610.211 556.536 610.211H546.59C543.45 610.211 542.403 609.163 542.403 606.021V543.181Z" fill="white"/>
<path d="M665.943 554.178C668.036 556.273 668.56 557.843 668.56 560.986V587.693C668.56 590.835 668.036 592.406 665.943 594.5L652.856 607.592C650.762 609.687 649.191 610.211 646.05 610.211H608.36C605.219 610.211 603.649 609.687 601.555 607.592L588.468 594.5C586.374 592.406 585.851 590.835 585.851 587.693V560.986C585.851 557.843 586.374 556.273 588.468 554.178L601.555 541.086C603.649 538.991 605.219 538.468 608.36 538.468H646.05C649.191 538.468 650.762 538.991 652.856 541.086L665.943 554.178ZM641.863 555.225H612.024L603.649 563.604V585.598L612.024 593.977H641.863L650.238 586.122V563.604L641.863 555.225Z" fill="white"/>
<path d="M753.886 543.181C753.886 540.039 754.933 538.992 758.074 538.992H766.973C770.114 538.992 771.161 540.039 771.161 543.181V600.261C771.161 603.403 770.637 604.974 768.02 607.069L761.215 612.83C759.121 614.924 757.55 614.924 755.457 612.83L710.961 565.699V606.022C710.961 609.164 709.914 610.211 706.773 610.211H697.874C694.733 610.211 693.686 609.164 693.686 606.022V543.181C693.686 540.039 694.733 538.992 697.874 538.992H707.82C710.961 538.992 712.531 539.516 714.625 542.134L754.41 584.551L753.886 543.181Z" fill="white"/>
<path d="M797.859 543.181C797.859 540.039 798.906 538.992 802.047 538.992H811.993C815.134 538.992 816.181 540.039 816.181 543.181V606.021C816.181 609.163 815.134 610.211 811.993 610.211H802.047C798.906 610.211 797.859 609.163 797.859 606.021V543.181Z" fill="white"/>
<path d="M915.64 548.417C917.734 550.512 917.734 552.083 915.64 553.654L907.788 561.509C905.694 563.604 904.124 563.604 902.03 560.985L896.272 555.225H867.48L859.105 563.604V585.598L867.48 593.977H896.795L902.553 588.216C904.647 586.122 906.217 586.122 907.788 588.216L915.117 596.071C917.211 598.166 917.211 599.737 915.117 601.832L908.311 608.116C906.218 610.21 904.647 610.734 901.506 610.734H862.769C859.628 610.734 858.058 610.21 855.964 608.116L843.401 595.548C841.307 593.453 840.783 591.882 840.783 588.74V562.556C840.783 559.414 841.307 557.843 843.401 555.749L856.487 542.657C858.581 540.562 860.152 540.039 863.293 540.039H902.03C905.171 540.039 906.741 540.562 908.835 542.657L915.64 548.417Z" fill="white"/>
<path d="M941.814 609.687C938.673 609.687 937.626 608.64 937.626 605.498V597.119C937.626 593.977 938.673 592.93 941.814 592.93H974.793L936.579 560.986C933.962 558.891 933.962 557.32 936.056 555.225L945.478 542.657C947.572 540.039 949.143 539.515 951.76 539.515H992.067C995.208 539.515 996.255 540.562 996.255 543.705V552.083C996.255 555.225 995.208 556.273 992.067 556.273H960.135L998.349 588.217C1000.97 590.311 1000.97 591.882 998.873 593.977L988.927 606.545C986.833 609.163 985.262 609.687 982.645 609.687H941.814Z" fill="white"/>
<path d="M307.363 428.497C307.363 425.355 308.41 424.308 311.55 424.308H363.898C367.039 424.308 368.609 424.831 370.703 426.926L378.032 434.257C380.126 436.352 380.649 437.399 380.649 440.541V445.778C380.649 448.92 380.126 450.491 377.508 452.586L371.227 458.87L378.032 465.678C380.126 467.772 380.649 469.343 380.649 472.485V477.722C380.649 480.34 379.602 482.435 377.508 484.53L370.18 491.337C368.086 493.432 366.515 493.956 363.375 493.956H311.55C308.41 493.956 307.363 492.908 307.363 489.766V428.497ZM363.375 445.254L358.14 440.018H325.161V452.586H356.569L363.375 445.254ZM358.663 479.817L363.898 474.58L356.569 467.249H325.161V480.34H358.663V479.817Z" fill="white"/>
<path d="M405.252 428.497C405.252 425.355 406.299 424.308 409.44 424.308H419.386C422.527 424.308 423.574 425.355 423.574 428.497V491.338C423.574 494.48 422.527 495.527 419.386 495.527H409.44C406.299 495.527 405.252 494.48 405.252 491.338V428.497V428.497Z" fill="white"/>
<path d="M504.19 477.722C507.33 477.722 508.377 478.769 508.377 481.911V490.814C508.377 493.956 507.33 495.003 504.19 495.003H454.459C451.318 495.003 450.271 493.956 450.271 490.814V428.497C450.271 425.355 451.318 424.308 454.459 424.308H464.405C467.546 424.308 468.593 425.355 468.593 428.497V477.722H504.19Z" fill="white"/>
<path d="M581.664 477.722C584.805 477.722 585.852 478.769 585.852 481.911V490.814C585.852 493.956 584.805 495.003 581.664 495.003H531.934C528.793 495.003 527.746 493.956 527.746 490.814V428.497C527.746 425.355 528.793 424.308 531.934 424.308H541.88C545.021 424.308 546.068 425.355 546.068 428.497V477.722H581.664Z" fill="white"/>
<path d="M605.219 428.497C605.219 425.355 606.266 424.308 609.407 424.308H661.231C664.372 424.308 665.419 425.355 665.419 428.497V436.352C665.419 439.494 664.372 440.541 661.231 440.541H623.017V451.538H657.567C660.708 451.538 661.755 452.586 661.755 455.728V464.107C661.755 467.249 660.708 468.296 657.567 468.296H623.017V479.817H661.755C664.896 479.817 665.942 480.864 665.942 484.006V491.861C665.942 495.003 664.896 496.051 661.755 496.051H609.407C606.266 496.051 605.219 495.003 605.219 491.861V428.497V428.497Z" fill="white"/>
<path d="M708.345 490.814C708.345 493.956 707.298 495.003 704.157 495.003H694.211C691.07 495.003 690.023 493.956 690.023 490.814V428.497C690.023 425.355 691.07 424.308 694.211 424.308H744.465C747.606 424.308 749.176 424.831 751.27 426.926L760.169 435.828C762.263 437.923 762.787 439.494 762.787 442.636V452.062C762.787 455.204 762.263 456.775 760.169 458.87L751.794 467.249C749.7 469.343 748.653 469.867 747.606 469.867H746.035L761.74 485.053C763.833 487.148 763.833 488.719 761.74 490.814L754.934 497.098C752.84 499.192 751.27 499.192 749.176 496.574L725.62 472.485H708.869V490.814H708.345ZM708.345 456.775H739.23L744.465 451.538V445.778L739.23 440.541H707.822L708.345 456.775Z" fill="white"/>
<path d="M787.389 428.497C787.389 425.355 788.436 424.308 791.577 424.308H801.523C804.664 424.308 805.711 425.355 805.711 428.497V491.338C805.711 494.48 804.664 495.527 801.523 495.527H791.577C788.436 495.527 787.389 494.48 787.389 491.338V428.497Z" fill="white"/>
<path d="M905.172 433.734C907.266 435.829 907.266 437.4 905.172 438.971L897.32 446.826C895.226 448.92 893.656 448.92 891.562 446.302L885.803 440.542H857.012L848.637 448.92V470.915L857.012 479.293H886.327L892.085 473.533C894.179 471.438 895.749 471.438 897.32 473.533L904.649 481.388C906.742 483.483 906.742 485.054 904.649 487.148L897.843 493.432C895.749 495.527 894.179 496.051 891.038 496.051H852.301C849.16 496.051 847.59 495.527 845.496 493.432L832.932 480.864C830.838 478.77 830.315 477.199 830.315 474.057V447.873C830.315 444.731 830.838 443.16 832.932 441.065L846.019 427.973C848.113 425.879 849.684 425.355 852.824 425.355H891.562C894.703 425.355 896.273 425.879 898.367 427.973L905.172 433.734Z" fill="white"/>
<path d="M1000.44 490.814C1000.44 493.956 999.397 495.003 996.257 495.003H986.311C983.17 495.003 982.646 493.956 982.646 490.814V477.722H945.48V491.338C945.48 494.48 944.433 495.527 941.292 495.527H932.393C929.252 495.527 928.205 494.48 928.205 491.338V454.681C928.205 451.539 928.728 449.968 930.822 447.873L951.761 426.402C953.855 424.308 955.426 423.26 958.566 423.26H970.083C973.224 423.26 974.794 423.784 976.888 426.402L997.304 447.873C999.397 449.968 999.921 452.062 999.921 454.681V490.814H1000.44ZM964.325 437.923L946.003 455.728V462.012H983.17V455.728L964.325 437.923Z" fill="white"/>
<path d="M350.632 106.439C350.632 117.333 341.805 126.161 330.919 126.161C320.033 126.161 311.206 117.333 311.206 106.439C311.206 95.5458 320.033 86.7173 330.919 86.7173C341.805 86.7173 350.632 95.5458 350.632 106.439Z" stroke="white" stroke-width="7.68664"/>
<path d="M485.345 106.439H1058.55L1134.45 179.753V399.695L1069.02 454.681" stroke="white" stroke-width="10.2488"/>
<path d="M338.771 88.1106L378.032 40.9802H1092.58L1210.36 153.57V454.681L1069.02 567.27" stroke="white" stroke-width="10.2488"/>
<path d="M447.309 106.439C447.309 117.333 456.136 126.161 467.022 126.161C477.908 126.161 486.735 117.333 486.735 106.439C486.735 95.5458 477.908 86.7173 467.022 86.7173C456.136 86.7173 447.309 95.5458 447.309 106.439Z" stroke="white" stroke-width="7.68664"/>
<path d="M1038.84 575.126C1038.84 584.573 1046.49 592.229 1055.93 592.229C1065.37 592.229 1073.03 584.573 1073.03 575.126C1073.03 565.678 1065.37 558.022 1055.93 558.022C1046.49 558.022 1038.84 565.678 1038.84 575.126Z" stroke="white" stroke-width="7.68664"/>
<path d="M259.145 363.34C259.145 372.243 256.528 375.385 247.105 375.385L218.314 375.908C209.939 375.908 206.798 373.29 207.321 363.864L207.845 333.491L95.8209 334.015C87.4453 334.015 84.3044 331.396 84.3044 322.494V286.884C84.3044 277.982 86.3983 273.269 92.68 266.461L171.725 182.15C178.007 175.342 182.718 173.248 191.617 173.248H247.629C256.528 173.248 259.145 175.866 259.145 184.768L258.622 287.932L289.507 287.408C298.406 287.408 301.547 290.026 301.547 298.929V322.494C301.547 331.396 298.929 334.015 289.507 334.015L258.622 333.491V363.34H259.145ZM198.946 218.283L142.41 280.6V287.932H208.892L209.415 216.712L198.946 218.283Z" fill="white"/>
<path d="M509.89 293.168C506.225 295.263 502.561 295.786 496.803 295.786H408.335C399.436 295.786 394.725 293.692 388.967 287.931L366.457 265.414C360.699 259.653 358.605 254.94 358.605 246.038L358.082 221.425C358.082 216.712 359.799 210.001 361.746 207.81C365.934 203.097 361.746 207.81 365.934 203.097L390.014 179.008C395.772 173.247 400.483 171.153 409.382 171.153H504.655C513.554 171.153 518.265 173.247 524.547 179.531L548.627 203.62C554.385 209.381 557.003 214.617 557.003 223.52V318.828C557.003 327.73 554.909 332.443 548.627 338.727L519.836 367.529C514.078 373.29 508.843 375.908 499.944 375.908H398.913C390.014 375.908 385.302 373.813 379.544 368.053L369.598 358.103C363.316 351.819 363.316 347.63 369.075 341.869L387.396 323.541C393.155 317.781 397.342 317.257 403.101 323.541L411.476 332.443H491.045L509.89 314.115V293.168ZM509.89 240.277V227.186L494.709 215.141H418.805L406.765 227.186V240.277L418.805 252.322H495.232L509.89 240.277Z" fill="white"/>
<path d="M1031.8 293.168C1028.13 295.263 1024.47 295.786 1018.71 295.786H930.241C921.342 295.786 916.631 293.692 910.872 287.931L888.363 265.414C882.605 259.653 880.511 254.94 880.511 246.038L879.987 221.425C879.987 216.712 881.705 210.001 883.652 207.81C887.839 203.097 883.652 207.81 887.839 203.097L911.919 179.008C917.678 173.247 922.389 171.153 931.288 171.153H1026.56C1035.46 171.153 1040.17 173.247 1046.45 179.531L1070.53 203.62C1076.29 209.381 1078.91 214.617 1078.91 223.52V318.828C1078.91 327.73 1076.81 332.443 1070.53 338.727L1041.74 367.529C1035.98 373.29 1030.75 375.908 1021.85 375.908H920.818C911.919 375.908 907.208 373.813 901.45 368.053L891.504 358.103C885.222 351.819 885.222 347.63 890.98 341.869L909.302 323.541C915.06 317.781 919.248 317.257 925.006 323.541L933.382 332.443H1012.95L1031.8 314.115V293.168ZM1031.8 240.277V227.186L1016.61 215.141H940.711L928.671 227.186V240.277L940.711 252.322H1017.14L1031.8 240.277Z" fill="white"/>
<path d="M814.553 216.188C820.311 221.949 822.405 226.662 822.405 235.564V313.068C822.405 321.97 820.311 326.683 814.03 332.967L777.91 368.577C771.628 374.861 766.393 376.955 758.018 376.955H683.161C674.261 376.955 669.55 374.861 663.792 369.1L626.625 332.443C620.867 326.683 618.773 321.97 618.773 313.068V236.088C618.773 227.186 620.867 222.473 626.625 216.712L663.792 180.055C669.55 174.295 674.261 172.2 683.161 172.2H758.541C767.44 172.2 772.152 174.295 777.91 180.055L814.553 216.188ZM747.548 218.807H693.63L670.597 241.848V306.784L693.107 329.301H747.025L770.058 306.26L770.581 240.801L747.548 218.807Z" fill="white"/>
<path d="M1073.03 459.917C1073.03 469.365 1065.37 477.021 1055.93 477.021C1046.49 477.021 1038.84 469.365 1038.84 459.917C1038.84 450.47 1046.49 442.814 1055.93 442.814C1065.37 442.814 1073.03 450.47 1073.03 459.917Z" stroke="white" stroke-width="7.68664"/>
</svg>
